# xmcd CD database file generated by OrangeCD 6.4
#
# Track frame offsets:
#	150
#	13836
#	29425
#	40078
#	58749
#	82665
#	105495
#	120079
#	135254
#	150913
#	172989
#	187497
#	202788
#	219556
#
# Disc length: 3140 seconds
#
# Revision: 0
# Processed by: cddbd v1.5.2PL0 Copyright (c) Steve Scherf et al.
# Submitted via: OrangeCD 6.4
#
DISCID=a60c420e
DTITLE=The Wiyos - Twist
DYEAR=2012
DGENRE=
TTITLE0=Yellow Lines
TTITLE1=Jolly Roger
TTITLE2=Scarecrow
TTITLE3=Tinman
TTITLE4=Mary
TTITLE5=Mama
TTITLE6=Poppy Fields
TTITLE7=Farewell Weather Bird
TTITLE8=Scarecrow 2
TTITLE9=Sally May
TTITLE10=Penny Arcade
TTITLE11=The Lion
TTITLE12=Mother Witch
TTITLE13=Home (The Ballad)
EXTD=
EXTT0=
EXTT1=
EXTT2=
EXTT3=
EXTT4=
EXTT5=
EXTT6=
EXTT7=
EXTT8=
EXTT9=
EXTT10=
EXTT11=
EXTT12=
EXTT13=
PLAYORDER=
